<svg width="30" height="30" viewBox="0 0 30 30" fill="none" xmlns="http://www.w3.org/2000/svg">
<path d="M7.4 15.8118H20.4V21.5647C20.4 22.0118 20.2267 22.3883 19.88 22.6941C19.5333 23 19.08 23.1647 18.52 23.1883H7.4L2.76 26.4706V23.1883H1.84C1.33333 23.1883 0.906667 23.0236 0.56 22.6941C0.213333 22.3647 0.0266667 21.9883 0 21.5647V10.9059C0 10.4589 0.186667 10.0706 0.56 9.7412C0.933333 9.41179 1.36 9.25885 1.84 9.28238H7.4V15.8118ZM27.8 0.282382C28.3333 0.282382 28.7733 0.435323 29.12 0.741206C29.4667 1.04709 29.64 1.44709 29.64 1.94121V12.5647C29.64 13.0118 29.4667 13.3883 29.12 13.6941C28.7733 14 28.3333 14.1647 27.8 14.1883H26.88V17.4706L22.24 14.1883H9.28V1.94121C9.28 1.47062 9.45333 1.07062 9.8 0.741206C10.1467 0.411794 10.5867 0.258853 11.12 0.282382H27.8Z" fill="#EEEEEE"/>
</svg>
