<svg width="15" height="15" viewBox="0 0 15 15" fill="none" xmlns="http://www.w3.org/2000/svg">
<path d="M5.98209 0.214233C7.51182 0.214233 8.9789 0.821917 10.0606 1.9036C11.1423 2.98528 11.7499 4.45236 11.7499 5.98209C11.7499 7.24616 11.3432 8.41491 10.6541 9.3657L14.5191 13.2308C14.6862 13.3954 14.7834 13.6183 14.7902 13.8528C14.7971 14.0873 14.7132 14.3154 14.556 14.4896C14.3988 14.6638 14.1805 14.7706 13.9465 14.7877C13.7125 14.8049 13.4809 14.7311 13.3 14.5817L13.2308 14.5191L9.3657 10.6541C8.38223 11.3682 7.19752 11.7519 5.98209 11.7499C4.45236 11.7499 2.98528 11.1423 1.9036 10.0606C0.821916 8.9789 0.214233 7.51182 0.214233 5.98209C0.214233 4.45236 0.821916 2.98528 1.9036 1.9036C2.98528 0.821917 4.45236 0.214233 5.98209 0.214233ZM5.98209 2.03566C4.93543 2.03566 3.93164 2.45145 3.19154 3.19154C2.45145 3.93164 2.03566 4.93543 2.03566 5.98209C2.03566 7.02875 2.45145 8.03254 3.19154 8.77264C3.93164 9.51274 4.93543 9.92852 5.98209 9.92852C7.02875 9.92852 8.03254 9.51274 8.77264 8.77264C9.51274 8.03254 9.92852 7.02875 9.92852 5.98209C9.92852 4.93543 9.51274 3.93164 8.77264 3.19154C8.03254 2.45145 7.02875 2.03566 5.98209 2.03566Z" fill="#4B4B4B"/>
</svg>
